<?xml version="1.0" encoding="utf-8"?>
<!-- Generator: Adobe Illustrator 28.1.0, SVG Export Plug-In . SVG Version: 6.00 Build 0)  -->
<svg version="1.1" id="Layer_1" xmlns="http://www.w3.org/2000/svg" xmlns:xlink="http://www.w3.org/1999/xlink" x="0px" y="0px"
	 viewBox="0 0 539 462" style="enable-background:new 0 0 539 462;" xml:space="preserve">
<style type="text/css">
	.st0{fill:#44423F;}
	.st1{fill:#FEB820;}
</style>
<path class="st0" d="M155.6,23.1c-27.7,2.3-58.5,18.2-77.5,40.1c-13.9,15.9-22.6,32.4-28.2,53.3c-2.2,8.1-2.4,10.9-2.3,28
	c0.1,17.4,0.3,19.8,2.8,29c6.5,23.9,13.7,36.3,36.6,63c3.3,3.8,6,7.6,6,8.2c0,1-4.1,1.3-17.3,1.3H58.3l-4.1-4.9
	c-7-8.3-18-11.2-27.2-7c-17.2,7.8-19.6,29-4.5,39.9c4.3,3.1,5.8,3.5,12.1,3.8c6.1,0.4,8,0,12-1.9c2.6-1.3,5.8-4,7.2-5.9
	c4.6-6.2,3.5-6,30-6c13.5,0,25.1,0.4,26.1,1c1,0.5,4.4,4.2,7.7,8.2c3.2,4,9.7,11.8,14.4,17.4c4.7,5.6,12.1,14.6,16.5,20
	c7.9,9.7,20.6,25.1,54.1,65.4c9.4,11.3,22.6,27.2,29.4,35.5c28.7,35,30.4,36.5,39.7,36.5c7.3,0,11.6-3.1,22.3-16.1
	c5.2-6.3,16.1-19.4,24.1-28.9c8-9.6,21.2-25.6,29.3-35.5c8.1-9.9,16.9-20.5,19.5-23.5s14.3-17.2,26.1-31.5
	c11.8-14.3,27.8-33.7,35.5-43c7.7-9.4,16.7-20.3,20-24.3l5.9-7.2h15.2c14.5,0,15.3,0.1,15.9,2.1c1.2,3.7,6.9,9.2,12,11.5
	c8.7,4.1,17.6,2.7,25-3.8c5.6-5,7.9-10.7,7.3-18.7c-0.9-12.3-10.3-21.1-22.7-21.1c-6.8,0-15,3.6-18.2,8.1c-1.9,2.7-2.5,2.9-9,2.9
	c-8.1,0-8.5-0.8-4-7.4c7.8-11.3,14.6-28.1,17.8-44.1c2.4-12.2,2.4-35.7-0.1-47.5c-8-37.5-33.1-69.7-66.9-85.5
	c-20.1-9.4-30.4-11.6-53.7-11.6c-18.9,0-27.2,1.3-41.3,6.7c-18,6.9-29.1,14.1-47.5,31.2c-6.7,6.2-12.6,11.2-13.1,11
	s-5.7-4.9-11.7-10.5S246.7,49.8,244.5,48c-16.4-13-41-22.9-62.1-25C171.3,21.9,169.6,21.9,155.6,23.1z"/>
<g>
	<path class="st1" d="M194.5,68c8.6,1.2,20,4.8,28,8.7c10,4.9,20.8,13.4,35.3,28c6.9,6.9,12.9,12.6,13.3,12.6s7.4-6.6,15.6-14.6
		c16.9-16.5,22.6-21,35.3-27c13.4-6.4,21.7-8.1,38-8.2c11.4,0,14.6,0.3,20.8,2c10.7,2.9,18.5,6.4,27.3,12.1
		c10.4,6.8,17.9,13.9,24.6,23.2c6.8,9.7,10.7,17.6,13.7,28.5c2.2,8,2.4,9.9,2.4,23.8c-0.1,13.1-0.3,16.2-2.1,22.5
		c-2.6,9.7-8.9,22.3-15.4,30.8c-8.8,11.6-1.4,10.3-60,10.3c-48.9,0-51,0.1-52.8,1.6c-1,1-10.1,17.3-20.2,36.6
		c-10.1,19.1-18.7,34.6-19.1,34.4s-0.7-33.2-0.7-73.3v-72.8l-2.3-2.4c-3.1-3.3-9.4-3.5-12.3-0.3c-1,1.1-13.3,23.5-27.1,49.5
		c-13.8,26.2-25.6,48-26.1,48.5c-0.7,0.7-11.8,1.2-35.9,1.6l-34.7,0.6l-6.8-8.1c-3.7-4.4-9.4-11.2-12.8-14.9
		c-14.1-15.9-20.6-26.9-24.5-41.1c-2-7.5-2.3-10-2.3-23.6c-0.1-13.3,0.2-16.1,1.9-22.5c4.4-16.3,12-29.4,23.9-41.2
		C139.4,73.7,167.5,64.1,194.5,68z"/>
	<path class="st1" d="M261.2,261.7V335l2.5,2.5c2,1.9,3.4,2.5,6,2.5c4.6,0,7.1-2.2,10.8-9.3c1.7-3.3,8.7-16.5,15.5-29.3
		c6.8-12.9,17.1-32.3,22.8-43.1l10.4-19.7h21.7c12,0,24.6-0.4,28.2-1c7.1-1,28.8-0.2,28.4,1c-0.2,0.4-6.1,7.8-13.3,16.5
		c-7.1,8.7-15.9,19.3-19.5,23.7c-12.2,14.9-59.9,72.7-81.2,98.5c-11.8,14.1-21.8,25.6-22.3,25.6c-0.5-0.1-6.1-6.2-12.2-13.6
		c-16.5-19.8-44.4-53.5-48.3-58.5c-1.9-2.3-7.4-9-12.2-14.7s-11.4-13.8-14.7-17.8s-11.2-13.7-17.4-21.4
		c-6.3-7.6-11.5-14.4-11.5-14.8c0-0.7,10.3-1,32.4-1c32.5,0,32.5,0,34.6-2c1.1-1,5.4-8.1,9.4-15.8c17.9-34.6,28.9-55,29.5-55
		C260.9,188.4,261.2,221.4,261.2,261.7z"/>
</g>
</svg>
